<?xml version="1.0" encoding="UTF-8" standalone="no"?>
<!DOCTYPE svg PUBLIC "-//W3C//DTD SVG 1.1//EN"
 "http://www.w3.org/Graphics/SVG/1.1/DTD/svg11.dtd">
<!-- Generated by graphviz version 2.43.0 (0)
 -->
<!-- Title: workflow Pages: 1 -->
<svg width="1285pt" height="309pt"
 viewBox="0.00 0.00 1285.28 309.00" xmlns="http://www.w3.org/2000/svg" xmlns:xlink="http://www.w3.org/1999/xlink">
<g id="graph0" class="graph" transform="scale(1 1) rotate(0) translate(4 305)">
<title>workflow</title>
<polygon fill="white" stroke="transparent" points="-4,4 -4,-305 1281.28,-305 1281.28,4 -4,4"/>
<!-- place_new -->
<g id="node1" class="node">
<title>place_new</title>
<ellipse fill="#dfdfdf" stroke="#333333" cx="74.69" cy="-46" rx="74.88" ry="29"/>
<text text-anchor="middle" x="74.69" y="-43.8" font-family="Arial" font-size="9.00">Start: Adding Basic Information</text>
</g>
<!-- place_enrich_product -->
<g id="node2" class="node">
<title>place_enrich_product</title>
<ellipse fill="none" stroke="#333333" cx="364.39" cy="-122" rx="61.03" ry="29"/>
<text text-anchor="middle" x="364.39" y="-119.8" font-family="Arial" font-size="9.00">Adding Data Enrichment</text>
</g>
<!-- place_new&#45;&gt;place_enrich_product -->
<g id="edge1" class="edge">
<title>place_new&#45;&gt;place_enrich_product</title>
<path fill="none" stroke="#afafaf" stroke-dasharray="5,2" d="M137.05,-62.21C186.99,-75.4 256.96,-93.89 305.84,-106.8"/>
<polygon fill="#afafaf" stroke="#afafaf" points="305.52,-108.52 310.8,-108.11 306.41,-105.14 305.52,-108.52"/>
<text text-anchor="middle" x="226.38" y="-101.8" font-family="Arial" font-size="9.00">Start adding data enrichment</text>
</g>
<!-- place_exited -->
<g id="node7" class="node">
<title>place_exited</title>
<ellipse fill="none" stroke="#333333" cx="1231" cy="-84" rx="42.16" ry="29"/>
<text text-anchor="middle" x="1231" y="-81.8" font-family="Arial" font-size="9.00">Exited workflow</text>
</g>
<!-- place_new&#45;&gt;place_exited -->
<g id="edge2" class="edge">
<title>place_new&#45;&gt;place_exited</title>
<path fill="none" stroke="#afafaf" stroke-dasharray="5,2" d="M149.6,-46C207.71,-46 290.71,-46 363.39,-46 363.39,-46 363.39,-46 1006.06,-46 1069.47,-46 1141.57,-60.99 1186.43,-72.14"/>
<polygon fill="#afafaf" stroke="#afafaf" points="1186.22,-73.89 1191.5,-73.41 1187.07,-70.5 1186.22,-73.89"/>
<text text-anchor="middle" x="633.9" y="-48.8" font-family="Arial" font-size="9.00">Exit workflow</text>
</g>
<!-- place_add_technicalities -->
<g id="node3" class="node">
<title>place_add_technicalities</title>
<ellipse fill="#ff4500" stroke="#ff4500" cx="633.9" cy="-151" rx="62.13" ry="29"/>
<text text-anchor="middle" x="633.9" y="-148.8" font-family="Arial" font-size="9.00" fill="#ffffff">Adding Technical Details</text>
</g>
<!-- place_enrich_product&#45;&gt;place_add_technicalities -->
<g id="edge3" class="edge">
<title>place_enrich_product&#45;&gt;place_add_technicalities</title>
<path fill="none" stroke="#afafaf" stroke-dasharray="5,2" d="M424.09,-128.36C466.6,-132.97 524.05,-139.2 567.93,-143.96"/>
<polygon fill="#afafaf" stroke="#afafaf" points="567.78,-145.7 572.94,-144.5 568.16,-142.22 567.78,-145.7"/>
<text text-anchor="middle" x="490.4" y="-141.8" font-family="Arial" font-size="9.00">Finish data enrichment</text>
</g>
<!-- place_enrich_product&#45;&gt;place_exited -->
<g id="edge4" class="edge">
<title>place_enrich_product&#45;&gt;place_exited</title>
<path fill="none" stroke="#afafaf" stroke-dasharray="5,2" d="M425.29,-119.1C462.69,-117.3 511.85,-114.97 555.4,-113 791.72,-102.32 1074.64,-90.46 1183.86,-85.91"/>
<polygon fill="#afafaf" stroke="#afafaf" points="1184,-87.66 1188.93,-85.7 1183.86,-84.16 1184,-87.66"/>
<text text-anchor="middle" x="836.9" y="-107.8" font-family="Arial" font-size="9.00">Exit workflow</text>
</g>
<!-- place_review -->
<g id="node4" class="node">
<title>place_review</title>
<ellipse fill="none" stroke="#333333" cx="1005.06" cy="-196" rx="43.81" ry="29"/>
<text text-anchor="middle" x="1005.06" y="-193.8" font-family="Arial" font-size="9.00">Review Process</text>
</g>
<!-- place_add_technicalities&#45;&gt;place_review -->
<g id="edge5" class="edge">
<title>place_add_technicalities&#45;&gt;place_review</title>
<path fill="none" stroke="#afafaf" stroke-dasharray="5,2" d="M687.89,-165.32C701.65,-168.61 716.51,-171.78 730.4,-174 808.83,-186.52 901.09,-192.06 955.96,-194.41"/>
<polygon fill="#afafaf" stroke="#afafaf" points="956.08,-196.16 961.15,-194.62 956.23,-192.66 956.08,-196.16"/>
<text text-anchor="middle" x="836.9" y="-195.8" font-family="Arial" font-size="9.00">Finish adding technical details</text>
</g>
<!-- place_add_technicalities&#45;&gt;place_exited -->
<g id="edge6" class="edge">
<title>place_add_technicalities&#45;&gt;place_exited</title>
<path fill="none" stroke="#afafaf" stroke-dasharray="5,2" d="M695.42,-145.88C814.9,-135.62 1077.27,-112.3 1166.71,-98 1173,-96.99 1179.6,-95.75 1186.06,-94.42"/>
<polygon fill="#afafaf" stroke="#afafaf" points="1186.44,-96.13 1190.98,-93.39 1185.72,-92.7 1186.44,-96.13"/>
<text text-anchor="middle" x="1005.06" y="-122.8" font-family="Arial" font-size="9.00">Exit workflow</text>
</g>
<!-- place_review&#45;&gt;place_enrich_product -->
<g id="edge8" class="edge">
<title>place_review&#45;&gt;place_enrich_product</title>
<path fill="none" stroke="#afafaf" stroke-dasharray="5,2" d="M963.08,-204.46C956.53,-205.51 949.8,-206.42 943.4,-207 771.46,-222.46 724.35,-224.44 555.4,-189 506.26,-178.69 452.48,-158.88 414.72,-143.46"/>
<polygon fill="#afafaf" stroke="#afafaf" points="415.02,-141.69 409.73,-141.41 413.69,-144.93 415.02,-141.69"/>
<text text-anchor="middle" x="633.9" y="-216.8" font-family="Arial" font-size="9.00">Reject enrichment and go back to start</text>
</g>
<!-- place_review&#45;&gt;place_add_technicalities -->
<g id="edge9" class="edge">
<title>place_review&#45;&gt;place_add_technicalities</title>
<path fill="none" stroke="#afafaf" stroke-dasharray="5,2" d="M973.43,-175.81C964.15,-170.68 953.69,-165.83 943.4,-163 861.85,-140.55 763.6,-141.22 700.24,-145.04"/>
<polygon fill="#afafaf" stroke="#afafaf" points="699.86,-143.31 694.98,-145.36 700.08,-146.8 699.86,-143.31"/>
<text text-anchor="middle" x="836.9" y="-165.8" font-family="Arial" font-size="9.00">Reject technicalities and go back to data enrichment</text>
</g>
<!-- place_accepted -->
<g id="node5" class="node">
<title>place_accepted</title>
<ellipse fill="none" stroke="#333333" cx="1231" cy="-272" rx="46.07" ry="29"/>
<text text-anchor="middle" x="1231" y="-269.8" font-family="Arial" font-size="9.00">Accepted product</text>
</g>
<!-- place_review&#45;&gt;place_accepted -->
<g id="edge7" class="edge">
<title>place_review&#45;&gt;place_accepted</title>
<path fill="none" stroke="#afafaf" stroke-dasharray="5,2" d="M1044.3,-208.98C1083.31,-222.22 1143.82,-242.75 1185.09,-256.76"/>
<polygon fill="#afafaf" stroke="#afafaf" points="1184.73,-258.48 1190.03,-258.43 1185.85,-255.17 1184.73,-258.48"/>
<text text-anchor="middle" x="1116.71" y="-251.8" font-family="Arial" font-size="9.00">Accept product</text>
</g>
<!-- place_rejected -->
<g id="node6" class="node">
<title>place_rejected</title>
<ellipse fill="none" stroke="#333333" cx="1231" cy="-196" rx="45.47" ry="29"/>
<text text-anchor="middle" x="1231" y="-193.8" font-family="Arial" font-size="9.00">Rejected product</text>
</g>
<!-- place_review&#45;&gt;place_rejected -->
<g id="edge10" class="edge">
<title>place_review&#45;&gt;place_rejected</title>
<path fill="none" stroke="#afafaf" stroke-dasharray="5,2" d="M1048.97,-196C1086.53,-196 1141.09,-196 1180.49,-196"/>
<polygon fill="#afafaf" stroke="#afafaf" points="1180.7,-197.75 1185.7,-196 1180.7,-194.25 1180.7,-197.75"/>
<text text-anchor="middle" x="1116.71" y="-198.8" font-family="Arial" font-size="9.00">Reject the entire product</text>
</g>
<!-- place_review&#45;&gt;place_exited -->
<g id="edge11" class="edge">
<title>place_review&#45;&gt;place_exited</title>
<path fill="none" stroke="#afafaf" stroke-dasharray="5,2" d="M1046.61,-186.96C1080.31,-178.34 1128.72,-163.34 1166.71,-141 1179.99,-133.19 1192.95,-122.29 1203.64,-112.12"/>
<polygon fill="#afafaf" stroke="#afafaf" points="1205.1,-113.14 1207.48,-108.41 1202.67,-110.63 1205.1,-113.14"/>
<text text-anchor="middle" x="1116.71" y="-182.8" font-family="Arial" font-size="9.00">Exit workflow</text>
</g>
<!-- place_exited&#45;&gt;place_new -->
<g id="edge12" class="edge">
<title>place_exited&#45;&gt;place_new</title>
<path fill="none" stroke="#afafaf" stroke-dasharray="5,2" d="M1200.67,-63.57C1190.29,-56.98 1178.3,-50.07 1166.71,-45 1098.79,-15.26 1080.21,0 1006.06,0 363.39,0 363.39,0 363.39,0 287.04,0 200.7,-15.99 142.7,-29.12"/>
<polygon fill="#afafaf" stroke="#afafaf" points="142.01,-27.48 137.53,-30.3 142.79,-30.89 142.01,-27.48"/>
<text text-anchor="middle" x="633.9" y="-2.8" font-family="Arial" font-size="9.00">Restart workflow</text>
</g>
</g>
</svg>
