<?xml version="1.0" encoding="UTF-8" standalone="no"?>
<!DOCTYPE svg PUBLIC "-//W3C//DTD SVG 1.1//EN"
 "http://www.w3.org/Graphics/SVG/1.1/DTD/svg11.dtd">
<!-- Generated by graphviz version 2.43.0 (0)
 -->
<!-- Title: workflow Pages: 1 -->
<svg width="1505pt" height="249pt"
 viewBox="0.00 0.00 1505.41 249.00" xmlns="http://www.w3.org/2000/svg" xmlns:xlink="http://www.w3.org/1999/xlink">
<g id="graph0" class="graph" transform="scale(1 1) rotate(0) translate(4 245)">
<title>workflow</title>
<polygon fill="white" stroke="transparent" points="-4,4 -4,-245 1501.41,-245 1501.41,4 -4,4"/>
<!-- place_new -->
<g id="node1" class="node">
<title>place_new</title>
<ellipse fill="#ff4500" stroke="#ff4500" cx="74.69" cy="-62" rx="74.88" ry="29"/>
<text text-anchor="middle" x="74.69" y="-59.8" font-family="Arial" font-size="9.00" fill="#ffffff">Start: Adding Basic Information</text>
</g>
<!-- place_enrich_product -->
<g id="node2" class="node">
<title>place_enrich_product</title>
<ellipse fill="none" stroke="#333333" cx="403.39" cy="-112" rx="61.03" ry="29"/>
<text text-anchor="middle" x="403.39" y="-109.8" font-family="Arial" font-size="9.00">Adding Data Enrichment</text>
</g>
<!-- place_new&#45;&gt;place_enrich_product -->
<g id="edge1" class="edge">
<title>place_new&#45;&gt;place_enrich_product</title>
<path fill="none" stroke="#afafaf" stroke-dasharray="5,2" d="M131.48,-81.01C143.22,-84.45 155.62,-87.68 167.38,-90 224.2,-101.22 289.92,-106.75 337.39,-109.46"/>
<polygon fill="#afafaf" stroke="#afafaf" points="337.42,-111.22 342.51,-109.75 337.61,-107.72 337.42,-111.22"/>
<text text-anchor="middle" x="245.88" y="-110.8" font-family="Arial" font-size="9.00">Start adding data enrichment</text>
</g>
<!-- place_exited -->
<g id="node7" class="node">
<title>place_exited</title>
<ellipse fill="none" stroke="#333333" cx="1451.13" cy="-84" rx="42.16" ry="29"/>
<text text-anchor="middle" x="1451.13" y="-81.8" font-family="Arial" font-size="9.00">Exited workflow</text>
</g>
<!-- place_new&#45;&gt;place_exited -->
<g id="edge2" class="edge">
<title>place_new&#45;&gt;place_exited</title>
<path fill="none" stroke="#afafaf" stroke-dasharray="5,2" d="M148.3,-56.4C214.47,-51.79 314.94,-46 402.39,-46 402.39,-46 402.39,-46 1135.19,-46 1232.14,-46 1344.69,-63.97 1405.53,-75.2"/>
<polygon fill="#afafaf" stroke="#afafaf" points="1405.3,-76.93 1410.54,-76.13 1405.94,-73.49 1405.3,-76.93"/>
<text text-anchor="middle" x="775.47" y="-48.8" font-family="Arial" font-size="9.00">Exit workflow</text>
</g>
<!-- place_enrich_product&#45;&gt;place_new -->
<g id="edge4" class="edge">
<title>place_enrich_product&#45;&gt;place_new</title>
<path fill="none" stroke="#afafaf" stroke-dasharray="5,2" d="M360.33,-91.21C348.92,-86.41 336.39,-81.87 324.38,-79 268.62,-65.7 203.99,-61.61 154.59,-60.76"/>
<polygon fill="#afafaf" stroke="#afafaf" points="154.58,-59.01 149.56,-60.69 154.53,-62.51 154.58,-59.01"/>
<text text-anchor="middle" x="245.88" y="-81.8" font-family="Arial" font-size="9.00">Reject enrichment and go back to start</text>
</g>
<!-- place_add_technicalities -->
<g id="node3" class="node">
<title>place_add_technicalities</title>
<ellipse fill="none" stroke="#333333" cx="775.47" cy="-150" rx="62.13" ry="29"/>
<text text-anchor="middle" x="775.47" y="-147.8" font-family="Arial" font-size="9.00">Adding Technical Details</text>
</g>
<!-- place_enrich_product&#45;&gt;place_add_technicalities -->
<g id="edge3" class="edge">
<title>place_enrich_product&#45;&gt;place_add_technicalities</title>
<path fill="none" stroke="#afafaf" stroke-dasharray="5,2" d="M459.22,-124.16C466.97,-125.61 474.87,-126.95 482.4,-128 559.52,-138.77 648.88,-144.53 708.24,-147.41"/>
<polygon fill="#afafaf" stroke="#afafaf" points="708.45,-149.18 713.53,-147.67 708.62,-145.68 708.45,-149.18"/>
<text text-anchor="middle" x="588.9" y="-148.8" font-family="Arial" font-size="9.00">Finish data enrichment</text>
</g>
<!-- place_enrich_product&#45;&gt;place_exited -->
<g id="edge5" class="edge">
<title>place_enrich_product&#45;&gt;place_exited</title>
<path fill="none" stroke="#afafaf" stroke-dasharray="5,2" d="M460.51,-101.62C467.85,-100.56 475.29,-99.64 482.4,-99 835.56,-67.02 1264.09,-77.57 1403.74,-82.27"/>
<polygon fill="#afafaf" stroke="#afafaf" points="1403.92,-84.02 1408.98,-82.44 1404.04,-80.53 1403.92,-84.02"/>
<text text-anchor="middle" x="964.03" y="-81.8" font-family="Arial" font-size="9.00">Exit workflow</text>
</g>
<!-- place_add_technicalities&#45;&gt;place_enrich_product -->
<g id="edge7" class="edge">
<title>place_add_technicalities&#45;&gt;place_enrich_product</title>
<path fill="none" stroke="#afafaf" stroke-dasharray="5,2" d="M732.33,-128.96C720.65,-124.1 707.78,-119.59 695.4,-117 618.7,-100.95 528.15,-102.51 468.66,-106.23"/>
<polygon fill="#afafaf" stroke="#afafaf" points="468.24,-104.51 463.36,-106.58 468.46,-108 468.24,-104.51"/>
<text text-anchor="middle" x="588.9" y="-119.8" font-family="Arial" font-size="9.00">Reject technicalities and go back to data enrichment</text>
</g>
<!-- place_review -->
<g id="node4" class="node">
<title>place_review</title>
<ellipse fill="none" stroke="#333333" cx="1134.19" cy="-196" rx="43.81" ry="29"/>
<text text-anchor="middle" x="1134.19" y="-193.8" font-family="Arial" font-size="9.00">Review Process</text>
</g>
<!-- place_add_technicalities&#45;&gt;place_review -->
<g id="edge6" class="edge">
<title>place_add_technicalities&#45;&gt;place_review</title>
<path fill="none" stroke="#afafaf" stroke-dasharray="5,2" d="M826.25,-166.89C835.87,-169.64 845.94,-172.19 855.53,-174 935.16,-189.06 1029.53,-193.83 1085.21,-195.33"/>
<polygon fill="#afafaf" stroke="#afafaf" points="1085.43,-197.08 1090.47,-195.46 1085.52,-193.59 1085.43,-197.08"/>
<text text-anchor="middle" x="964.03" y="-196.8" font-family="Arial" font-size="9.00">Finish adding technical details</text>
</g>
<!-- place_add_technicalities&#45;&gt;place_exited -->
<g id="edge8" class="edge">
<title>place_add_technicalities&#45;&gt;place_exited</title>
<path fill="none" stroke="#afafaf" stroke-dasharray="5,2" d="M836.73,-145.32C980.08,-134.14 1333.42,-106.15 1386.84,-98 1393.13,-97.04 1399.74,-95.82 1406.21,-94.5"/>
<polygon fill="#afafaf" stroke="#afafaf" points="1406.58,-96.21 1411.12,-93.48 1405.87,-92.79 1406.58,-96.21"/>
<text text-anchor="middle" x="1134.19" y="-126.8" font-family="Arial" font-size="9.00">Exit workflow</text>
</g>
<!-- place_review&#45;&gt;place_add_technicalities -->
<g id="edge10" class="edge">
<title>place_review&#45;&gt;place_add_technicalities</title>
<path fill="none" stroke="#afafaf" stroke-dasharray="5,2" d="M1102.55,-175.84C1093.27,-170.72 1082.81,-165.86 1072.53,-163 995.38,-141.56 902.62,-141.38 841.74,-144.54"/>
<polygon fill="#afafaf" stroke="#afafaf" points="841.58,-142.8 836.68,-144.81 841.77,-146.29 841.58,-142.8"/>
<text text-anchor="middle" x="964.03" y="-165.8" font-family="Arial" font-size="9.00">Reject review and go back to adding technical details</text>
</g>
<!-- place_accepted -->
<g id="node5" class="node">
<title>place_accepted</title>
<ellipse fill="none" stroke="#333333" cx="1451.13" cy="-212" rx="46.07" ry="29"/>
<text text-anchor="middle" x="1451.13" y="-209.8" font-family="Arial" font-size="9.00">Accepted product</text>
</g>
<!-- place_review&#45;&gt;place_accepted -->
<g id="edge9" class="edge">
<title>place_review&#45;&gt;place_accepted</title>
<path fill="none" stroke="#afafaf" stroke-dasharray="5,2" d="M1176.17,-204.35C1182.72,-205.42 1189.45,-206.36 1195.84,-207 1266.14,-214.02 1347.9,-214.22 1399.33,-213.38"/>
<polygon fill="#afafaf" stroke="#afafaf" points="1399.55,-215.13 1404.52,-213.29 1399.49,-211.63 1399.55,-215.13"/>
<text text-anchor="middle" x="1291.34" y="-215.8" font-family="Arial" font-size="9.00">Accept product</text>
</g>
<!-- place_review&#45;&gt;place_exited -->
<g id="edge11" class="edge">
<title>place_review&#45;&gt;place_exited</title>
<path fill="none" stroke="#afafaf" stroke-dasharray="5,2" d="M1172.76,-181.96C1180.34,-179.43 1188.29,-176.97 1195.84,-175 1279.28,-153.27 1309.38,-178.87 1386.84,-141 1401.04,-134.06 1414.42,-122.97 1425.19,-112.41"/>
<polygon fill="#afafaf" stroke="#afafaf" points="1426.44,-113.64 1428.73,-108.86 1423.96,-111.16 1426.44,-113.64"/>
<text text-anchor="middle" x="1291.34" y="-177.8" font-family="Arial" font-size="9.00">Exit workflow</text>
</g>
<!-- place_accepted&#45;&gt;place_review -->
<g id="edge12" class="edge">
<title>place_accepted&#45;&gt;place_review</title>
<path fill="none" stroke="#afafaf" stroke-dasharray="5,2" d="M1408.87,-200.01C1401.59,-198.34 1394.04,-196.9 1386.84,-196 1316.21,-187.21 1233.57,-189.61 1182.8,-192.51"/>
<polygon fill="#afafaf" stroke="#afafaf" points="1182.57,-190.77 1177.68,-192.81 1182.78,-194.27 1182.57,-190.77"/>
<text text-anchor="middle" x="1291.34" y="-198.8" font-family="Arial" font-size="9.00">Reject accepted product and go back to review</text>
</g>
<!-- place_rejected -->
<g id="node6" class="node">
<title>place_rejected</title>
<ellipse fill="none" stroke="#333333" cx="74.69" cy="-138" rx="45.47" ry="29"/>
<text text-anchor="middle" x="74.69" y="-135.8" font-family="Arial" font-size="9.00">Rejected product</text>
</g>
<!-- place_exited&#45;&gt;place_new -->
<g id="edge13" class="edge">
<title>place_exited&#45;&gt;place_new</title>
<path fill="none" stroke="#afafaf" stroke-dasharray="5,2" d="M1422.09,-62.96C1411.52,-55.95 1399.09,-48.73 1386.84,-44 1280.91,-3.11 1248.73,0 1135.19,0 402.39,0 402.39,0 402.39,0 309.41,0 204.12,-24.54 138.8,-42.74"/>
<polygon fill="#afafaf" stroke="#afafaf" points="138.12,-41.11 133.78,-44.15 139.07,-44.48 138.12,-41.11"/>
<text text-anchor="middle" x="775.47" y="-2.8" font-family="Arial" font-size="9.00">Restart workflow</text>
</g>
</g>
</svg>
